<?xml version="1.0" encoding="UTF-8" standalone="no"?>
<!DOCTYPE svg PUBLIC "-//W3C//DTD SVG 1.1//EN"
 "http://www.w3.org/Graphics/SVG/1.1/DTD/svg11.dtd">
<!-- Generated by graphviz version 2.38.0 (20140413.2041)
 -->
<!-- Title: mygraph Pages: 1 -->
<svg width="1014pt" height="404pt"
 viewBox="0.00 0.00 1014.00 404.00" xmlns="http://www.w3.org/2000/svg" xmlns:xlink="http://www.w3.org/1999/xlink">
<g id="graph0" class="graph" transform="scale(1 1) rotate(0) translate(4 400)">
<title>mygraph</title>
<polygon fill="white" stroke="none" points="-4,4 -4,-400 1010,-400 1010,4 -4,4"/>
<!-- //peek:peek (96d6638) -->
<g id="node1" class="node"><title>//peek:peek (96d6638)</title>
<polygon fill="none" stroke="black" points="195.5,-252 56.5,-252 56.5,-216 195.5,-216 195.5,-252"/>
<text text-anchor="middle" x="126" y="-230.3" font-family="Times,serif" font-size="14.00">//peek:peek (96d6638)</text>
</g>
<!-- //peek:facade_implemenation (96d6638) -->
<g id="node2" class="node"><title>//peek:facade_implemenation (96d6638)</title>
<polygon fill="none" stroke="black" points="238,-180 0,-180 0,-144 238,-144 238,-180"/>
<text text-anchor="middle" x="119" y="-158.3" font-family="Times,serif" font-size="14.00">//peek:facade_implemenation (96d6638)</text>
</g>
<!-- //peek:peek (96d6638)&#45;&gt;//peek:facade_implemenation (96d6638) -->
<g id="edge1" class="edge"><title>//peek:peek (96d6638)&#45;&gt;//peek:facade_implemenation (96d6638)</title>
<path fill="none" stroke="black" d="M124.27,-215.697C123.498,-207.983 122.571,-198.712 121.711,-190.112"/>
<polygon fill="black" stroke="black" points="125.188,-189.706 120.71,-180.104 118.223,-190.403 125.188,-189.706"/>
</g>
<!-- //peek:peek_iface (96d6638) -->
<g id="node3" class="node"><title>//peek:peek_iface (96d6638)</title>
<polygon fill="none" stroke="black" points="428,-180 256,-180 256,-144 428,-144 428,-180"/>
<text text-anchor="middle" x="342" y="-158.3" font-family="Times,serif" font-size="14.00">//peek:peek_iface (96d6638)</text>
</g>
<!-- //peek:peek (96d6638)&#45;&gt;//peek:peek_iface (96d6638) -->
<g id="edge2" class="edge"><title>//peek:peek (96d6638)&#45;&gt;//peek:peek_iface (96d6638)</title>
<path fill="none" stroke="black" d="M178.563,-215.966C209.006,-206.1 247.511,-193.622 279.499,-183.255"/>
<polygon fill="black" stroke="black" points="280.767,-186.523 289.201,-180.111 278.609,-179.864 280.767,-186.523"/>
</g>
<!-- //:empty (96d6638) -->
<g id="node4" class="node"><title>//:empty (96d6638)</title>
<polygon fill="none" stroke="black" points="180,-108 58,-108 58,-72 180,-72 180,-108"/>
<text text-anchor="middle" x="119" y="-86.3" font-family="Times,serif" font-size="14.00">//:empty (96d6638)</text>
</g>
<!-- //peek:facade_implemenation (96d6638)&#45;&gt;//:empty (96d6638) -->
<g id="edge3" class="edge"><title>//peek:facade_implemenation (96d6638)&#45;&gt;//:empty (96d6638)</title>
<path fill="none" stroke="black" d="M119,-143.697C119,-135.983 119,-126.712 119,-118.112"/>
<polygon fill="black" stroke="black" points="122.5,-118.104 119,-108.104 115.5,-118.104 122.5,-118.104"/>
</g>
<!-- //:mainB (96d6638) -->
<g id="node5" class="node"><title>//:mainB (96d6638)</title>
<polygon fill="none" stroke="black" points="576.5,-396 451.5,-396 451.5,-360 576.5,-360 576.5,-396"/>
<text text-anchor="middle" x="514" y="-374.3" font-family="Times,serif" font-size="14.00">//:mainB (96d6638)</text>
</g>
<!-- //peekB:peekB (96d6638) -->
<g id="node6" class="node"><title>//peekB:peekB (96d6638)</title>
<polygon fill="none" stroke="black" points="592.5,-324 435.5,-324 435.5,-288 592.5,-288 592.5,-324"/>
<text text-anchor="middle" x="514" y="-302.3" font-family="Times,serif" font-size="14.00">//peekB:peekB (96d6638)</text>
</g>
<!-- //:mainB (96d6638)&#45;&gt;//peekB:peekB (96d6638) -->
<g id="edge4" class="edge"><title>//:mainB (96d6638)&#45;&gt;//peekB:peekB (96d6638)</title>
<path fill="none" stroke="black" d="M514,-359.697C514,-351.983 514,-342.712 514,-334.112"/>
<polygon fill="black" stroke="black" points="517.5,-334.104 514,-324.104 510.5,-334.104 517.5,-334.104"/>
</g>
<!-- //peek:peek (f44bd79) -->
<g id="node7" class="node"><title>//peek:peek (f44bd79)</title>
<polygon fill="none" stroke="black" points="788.5,-252 651.5,-252 651.5,-216 788.5,-216 788.5,-252"/>
<text text-anchor="middle" x="720" y="-230.3" font-family="Times,serif" font-size="14.00">//peek:peek (f44bd79)</text>
</g>
<!-- //peekB:peekB (96d6638)&#45;&gt;//peek:peek (f44bd79) -->
<g id="edge5" class="edge"><title>//peekB:peekB (96d6638)&#45;&gt;//peek:peek (f44bd79)</title>
<path fill="none" stroke="black" d="M564.13,-287.966C593.038,-278.142 629.569,-265.729 659.998,-255.389"/>
<polygon fill="black" stroke="black" points="661.303,-258.642 669.645,-252.111 659.051,-252.014 661.303,-258.642"/>
</g>
<!-- //peekB:peekB_impl (96d6638) -->
<g id="node8" class="node"><title>//peekB:peekB_impl (96d6638)</title>
<polygon fill="none" stroke="black" points="424.5,-252 235.5,-252 235.5,-216 424.5,-216 424.5,-252"/>
<text text-anchor="middle" x="330" y="-230.3" font-family="Times,serif" font-size="14.00">//peekB:peekB_impl (96d6638)</text>
</g>
<!-- //peekB:peekB (96d6638)&#45;&gt;//peekB:peekB_impl (96d6638) -->
<g id="edge6" class="edge"><title>//peekB:peekB (96d6638)&#45;&gt;//peekB:peekB_impl (96d6638)</title>
<path fill="none" stroke="black" d="M468.989,-287.876C443.499,-278.179 411.432,-265.98 384.524,-255.743"/>
<polygon fill="black" stroke="black" points="385.456,-252.353 374.865,-252.068 382.967,-258.895 385.456,-252.353"/>
</g>
<!-- //peek:facade_implemenation (f44bd79) -->
<g id="node9" class="node"><title>//peek:facade_implemenation (f44bd79)</title>
<polygon fill="none" stroke="black" points="695,-180 459,-180 459,-144 695,-144 695,-180"/>
<text text-anchor="middle" x="577" y="-158.3" font-family="Times,serif" font-size="14.00">//peek:facade_implemenation (f44bd79)</text>
</g>
<!-- //peek:peek (f44bd79)&#45;&gt;//peek:facade_implemenation (f44bd79) -->
<g id="edge8" class="edge"><title>//peek:peek (f44bd79)&#45;&gt;//peek:facade_implemenation (f44bd79)</title>
<path fill="none" stroke="black" d="M685.018,-215.876C665.802,-206.469 641.774,-194.708 621.263,-184.667"/>
<polygon fill="black" stroke="black" points="622.637,-181.443 612.116,-180.19 619.559,-187.73 622.637,-181.443"/>
</g>
<!-- //peek:peek_iface (f44bd79) -->
<g id="node10" class="node"><title>//peek:peek_iface (f44bd79)</title>
<polygon fill="none" stroke="black" points="768,-36 598,-36 598,-0 768,-0 768,-36"/>
<text text-anchor="middle" x="683" y="-14.3" font-family="Times,serif" font-size="14.00">//peek:peek_iface (f44bd79)</text>
</g>
<!-- //peek:peek (f44bd79)&#45;&gt;//peek:peek_iface (f44bd79) -->
<g id="edge9" class="edge"><title>//peek:peek (f44bd79)&#45;&gt;//peek:peek_iface (f44bd79)</title>
<path fill="none" stroke="black" d="M717.035,-215.849C710.621,-178.753 695.416,-90.8101 687.686,-46.1027"/>
<polygon fill="black" stroke="black" points="691.132,-45.4899 685.979,-36.2325 684.234,-46.6826 691.132,-45.4899"/>
</g>
<!-- //peekB:peekB_impl (96d6638)&#45;&gt;//peek:peek_iface (96d6638) -->
<g id="edge7" class="edge"><title>//peekB:peekB_impl (96d6638)&#45;&gt;//peek:peek_iface (96d6638)</title>
<path fill="none" stroke="black" d="M332.966,-215.697C334.289,-207.983 335.878,-198.712 337.352,-190.112"/>
<polygon fill="black" stroke="black" points="340.828,-190.552 339.068,-180.104 333.928,-189.369 340.828,-190.552"/>
</g>
<!-- //peekB:peekB_impl (f44bd79) -->
<g id="node11" class="node"><title>//peekB:peekB_impl (f44bd79)</title>
<polygon fill="none" stroke="black" points="683.5,-108 496.5,-108 496.5,-72 683.5,-72 683.5,-108"/>
<text text-anchor="middle" x="590" y="-86.3" font-family="Times,serif" font-size="14.00">//peekB:peekB_impl (f44bd79)</text>
</g>
<!-- //peek:facade_implemenation (f44bd79)&#45;&gt;//peekB:peekB_impl (f44bd79) -->
<g id="edge10" class="edge"><title>//peek:facade_implemenation (f44bd79)&#45;&gt;//peekB:peekB_impl (f44bd79)</title>
<path fill="none" stroke="black" d="M580.213,-143.697C581.646,-135.983 583.368,-126.712 584.965,-118.112"/>
<polygon fill="black" stroke="black" points="588.439,-118.575 586.823,-108.104 581.556,-117.297 588.439,-118.575"/>
</g>
<!-- //peekB:peekB_impl (f44bd79)&#45;&gt;//peek:peek_iface (f44bd79) -->
<g id="edge11" class="edge"><title>//peekB:peekB_impl (f44bd79)&#45;&gt;//peek:peek_iface (f44bd79)</title>
<path fill="none" stroke="black" d="M612.989,-71.6966C624.814,-62.796 639.392,-51.8232 652.179,-42.1989"/>
<polygon fill="black" stroke="black" points="654.391,-44.9145 660.276,-36.1043 650.181,-39.3217 654.391,-44.9145"/>
</g>
<!-- //:mainA (96d6638) -->
<g id="node12" class="node"><title>//:mainA (96d6638)</title>
<polygon fill="none" stroke="black" points="768.5,-396 643.5,-396 643.5,-360 768.5,-360 768.5,-396"/>
<text text-anchor="middle" x="706" y="-374.3" font-family="Times,serif" font-size="14.00">//:mainA (96d6638)</text>
</g>
<!-- //peekA:peekA (96d6638) -->
<g id="node13" class="node"><title>//peekA:peekA (96d6638)</title>
<polygon fill="none" stroke="black" points="785,-324 627,-324 627,-288 785,-288 785,-324"/>
<text text-anchor="middle" x="706" y="-302.3" font-family="Times,serif" font-size="14.00">//peekA:peekA (96d6638)</text>
</g>
<!-- //:mainA (96d6638)&#45;&gt;//peekA:peekA (96d6638) -->
<g id="edge12" class="edge"><title>//:mainA (96d6638)&#45;&gt;//peekA:peekA (96d6638)</title>
<path fill="none" stroke="black" d="M706,-359.697C706,-351.983 706,-342.712 706,-334.112"/>
<polygon fill="black" stroke="black" points="709.5,-334.104 706,-324.104 702.5,-334.104 709.5,-334.104"/>
</g>
<!-- //peek:peek (1a0e39f) -->
<g id="node14" class="node"><title>//peek:peek (1a0e39f)</title>
<polygon fill="none" stroke="black" points="941.5,-252 806.5,-252 806.5,-216 941.5,-216 941.5,-252"/>
<text text-anchor="middle" x="874" y="-230.3" font-family="Times,serif" font-size="14.00">//peek:peek (1a0e39f)</text>
</g>
<!-- //peekA:peekA (96d6638)&#45;&gt;//peek:peek (1a0e39f) -->
<g id="edge13" class="edge"><title>//peekA:peekA (96d6638)&#45;&gt;//peek:peek (1a0e39f)</title>
<path fill="none" stroke="black" d="M747.097,-287.876C770.166,-278.264 799.136,-266.193 823.57,-256.013"/>
<polygon fill="black" stroke="black" points="825.151,-259.145 833.036,-252.068 822.459,-252.684 825.151,-259.145"/>
</g>
<!-- //peekA:peekA_impl (96d6638) -->
<g id="node15" class="node"><title>//peekA:peekA_impl (96d6638)</title>
<polygon fill="none" stroke="black" points="633.5,-252 442.5,-252 442.5,-216 633.5,-216 633.5,-252"/>
<text text-anchor="middle" x="538" y="-230.3" font-family="Times,serif" font-size="14.00">//peekA:peekA_impl (96d6638)</text>
</g>
<!-- //peekA:peekA (96d6638)&#45;&gt;//peekA:peekA_impl (96d6638) -->
<g id="edge14" class="edge"><title>//peekA:peekA (96d6638)&#45;&gt;//peekA:peekA_impl (96d6638)</title>
<path fill="none" stroke="black" d="M664.903,-287.876C641.834,-278.264 612.864,-266.193 588.43,-256.013"/>
<polygon fill="black" stroke="black" points="589.541,-252.684 578.964,-252.068 586.849,-259.145 589.541,-252.684"/>
</g>
<!-- //peek:facade_implemenation (1a0e39f) -->
<g id="node16" class="node"><title>//peek:facade_implemenation (1a0e39f)</title>
<polygon fill="none" stroke="black" points="987,-180 753,-180 753,-144 987,-144 987,-180"/>
<text text-anchor="middle" x="870" y="-158.3" font-family="Times,serif" font-size="14.00">//peek:facade_implemenation (1a0e39f)</text>
</g>
<!-- //peek:peek (1a0e39f)&#45;&gt;//peek:facade_implemenation (1a0e39f) -->
<g id="edge16" class="edge"><title>//peek:peek (1a0e39f)&#45;&gt;//peek:facade_implemenation (1a0e39f)</title>
<path fill="none" stroke="black" d="M873.011,-215.697C872.57,-207.983 872.041,-198.712 871.549,-190.112"/>
<polygon fill="black" stroke="black" points="875.042,-189.888 870.977,-180.104 868.054,-190.288 875.042,-189.888"/>
</g>
<!-- //peek:peek_iface (1a0e39f) -->
<g id="node17" class="node"><title>//peek:peek_iface (1a0e39f)</title>
<polygon fill="none" stroke="black" points="1006,-36 838,-36 838,-0 1006,-0 1006,-36"/>
<text text-anchor="middle" x="922" y="-14.3" font-family="Times,serif" font-size="14.00">//peek:peek_iface (1a0e39f)</text>
</g>
<!-- //peek:peek (1a0e39f)&#45;&gt;//peek:peek_iface (1a0e39f) -->
<g id="edge17" class="edge"><title>//peek:peek (1a0e39f)&#45;&gt;//peek:peek_iface (1a0e39f)</title>
<path fill="none" stroke="black" d="M941.549,-219.1C962.589,-211.251 983.525,-199.021 996,-180 1008.62,-160.76 990.955,-84.309 984,-72 977.569,-60.6181 967.713,-50.5527 957.739,-42.3345"/>
<polygon fill="black" stroke="black" points="959.822,-39.5208 949.777,-36.1498 955.527,-45.0487 959.822,-39.5208"/>
</g>
<!-- //peekA:peekA_impl (96d6638)&#45;&gt;//peek:peek_iface (96d6638) -->
<g id="edge15" class="edge"><title>//peekA:peekA_impl (96d6638)&#45;&gt;//peek:peek_iface (96d6638)</title>
<path fill="none" stroke="black" d="M490.304,-215.966C462.918,-206.185 428.342,-193.836 399.466,-183.524"/>
<polygon fill="black" stroke="black" points="400.505,-180.178 389.91,-180.111 398.15,-186.77 400.505,-180.178"/>
</g>
<!-- //peekA:peekA_impl (1a0e39f) -->
<g id="node18" class="node"><title>//peekA:peekA_impl (1a0e39f)</title>
<polygon fill="none" stroke="black" points="975.5,-108 788.5,-108 788.5,-72 975.5,-72 975.5,-108"/>
<text text-anchor="middle" x="882" y="-86.3" font-family="Times,serif" font-size="14.00">//peekA:peekA_impl (1a0e39f)</text>
</g>
<!-- //peek:facade_implemenation (1a0e39f)&#45;&gt;//peekA:peekA_impl (1a0e39f) -->
<g id="edge18" class="edge"><title>//peek:facade_implemenation (1a0e39f)&#45;&gt;//peekA:peekA_impl (1a0e39f)</title>
<path fill="none" stroke="black" d="M872.966,-143.697C874.289,-135.983 875.878,-126.712 877.352,-118.112"/>
<polygon fill="black" stroke="black" points="880.828,-118.552 879.068,-108.104 873.928,-117.369 880.828,-118.552"/>
</g>
<!-- //peekA:peekA_impl (1a0e39f)&#45;&gt;//peek:peek_iface (1a0e39f) -->
<g id="edge19" class="edge"><title>//peekA:peekA_impl (1a0e39f)&#45;&gt;//peek:peek_iface (1a0e39f)</title>
<path fill="none" stroke="black" d="M891.888,-71.6966C896.489,-63.6436 902.06,-53.8945 907.153,-44.9824"/>
<polygon fill="black" stroke="black" points="910.304,-46.5233 912.226,-36.1043 904.226,-43.0503 910.304,-46.5233"/>
</g>
</g>
</svg>
